<?xml version="1.0" standalone="no"?>
<!DOCTYPE svg PUBLIC "-//W3C//DTD SVG 20010904//EN"
 "http://www.w3.org/TR/2001/REC-SVG-20010904/DTD/svg10.dtd">
<svg version="1.0" xmlns="http://www.w3.org/2000/svg"
 width="133.000000pt" height="133.000000pt" viewBox="0 0 133.000000 133.000000"
 preserveAspectRatio="xMidYMid meet">
<metadata>
Created by potrace 1.11, written by Peter Selinger 2001-2013
</metadata>
<g transform="translate(0.000000,133.000000) scale(0.100000,-0.100000)"
fill="#000000" stroke="none">
<path d="M216 1118 c-14 -20 -16 -80 -16 -455 l0 -432 22 -15 c20 -14 80 -16
455 -16 l432 0 15 22 c14 20 16 80 16 455 l0 432 -22 15 c-20 14 -80 16 -455
16 l-432 0 -15 -22z m162 -95 l-3 -58 -57 -3 -58 -3 0 61 0 60 60 0 61 0 -3
-57z m522 -118 l0 -175 -230 0 -230 0 0 175 0 175 230 0 230 0 0 -175z m180
115 l0 -61 -57 3 -58 3 -3 58 -3 57 61 0 60 0 0 -60z m-702 -232 l3 -58 -61 0
-60 0 0 60 0 61 58 -3 57 -3 3 -57z m702 2 l0 -60 -60 0 -60 0 0 53 c0 30 3
57 7 60 3 4 30 7 60 7 l53 0 0 -60z m-702 -237 l-3 -58 -57 -3 -58 -3 0 61 0
60 60 0 61 0 -3 -57z m522 -118 l0 -175 -230 0 -230 0 0 175 0 175 230 0 230
0 0 -175z m180 115 l0 -61 -57 3 -58 3 -3 58 -3 57 61 0 60 0 0 -60z m-702
-232 l3 -58 -61 0 -60 0 0 60 0 61 58 -3 57 -3 3 -57z m702 2 l0 -60 -60 0
-60 0 0 53 c0 30 3 57 7 60 3 4 30 7 60 7 l53 0 0 -60z"/>
</g>
</svg>
