<svg width="28" height="28" viewBox="0 0 28 28" fill="none" xmlns="http://www.w3.org/2000/svg">
<path fill-rule="evenodd" clip-rule="evenodd" d="M19.0454 17.9133H20.2963L27.0096 24.6583C27.6588 25.3075 27.6588 26.3683 27.0096 27.0175C26.3604 27.6667 25.2996 27.6667 24.6504 27.0175L17.9213 20.2883V19.0375L17.4938 18.5942C15.2771 20.4942 12.2529 21.4758 9.03876 20.9375C4.63709 20.1933 1.12209 16.52 0.583758 12.0867C-0.239575 5.38916 5.39709 -0.24751 12.0946 0.575824C16.5279 1.11416 20.2013 4.62916 20.9454 9.03082C21.4838 12.245 20.5021 15.2692 18.6021 17.4858L19.0454 17.9133ZM3.67126 10.7883C3.67126 14.7308 6.85376 17.9133 10.7963 17.9133C14.7388 17.9133 17.9213 14.7308 17.9213 10.7883C17.9213 6.84581 14.7388 3.66331 10.7963 3.66331C6.85376 3.66331 3.67126 6.84581 3.67126 10.7883Z" fill="#363731"/>
</svg>
